<?xml version="1.0" encoding="UTF-8"?>
<!DOCTYPE svg PUBLIC "-//W3C//DTD SVG 1.1//EN" "http://www.w3.org/Graphics/SVG/1.1/DTD/svg11.dtd">
<!-- Creator: CorelDRAW X7 -->
<svg xmlns="http://www.w3.org/2000/svg" xml:space="preserve" width="45px" height="45px" version="1.1" style="shape-rendering:geometricPrecision; text-rendering:geometricPrecision; image-rendering:optimizeQuality; fill-rule:evenodd; clip-rule:evenodd"
viewBox="0 0 68412 68407"
 xmlns:xlink="http://www.w3.org/1999/xlink">
 <defs>
  <style type="text/css">
   <![CDATA[
    .fil0 {fill:#4D4D4D}
   ]]>
  </style>
 </defs>
 <g id="Слой_x0020_1">
  <metadata id="CorelCorpID_0Corel-Layer"/>
  <path class="fil0" d="M59023 13409c0,2228 -1804,4031 -4020,4031 -2228,0 -4031,-1803 -4031,-4031 0,-2217 1803,-4019 4031,-4019 2216,0 4020,1802 4020,4019zm9389 -12069c0,-751 -664,-1340 -1427,-1340 -14586,0 -22585,3355 -33064,13784 -2391,2441 -4870,5196 -7387,8175l-15886 840c-414,50 -840,299 -1089,675l-9391 16089c-287,512 -199,1176 213,1639l2680 2679c250,250 638,376 963,376 126,0 251,0 376,-37l11580 -3568 11769 11780 -3556 11568c-125,464 0,964 338,1352l2680 2680c287,249 625,375 964,375 250,0 463,-38 663,-164l16099 -9388c376,-251 627,-676 677,-1089l838 -15888c2968,-2516 5734,-4995 8177,-7386 9927,-9979 13783,-19231 13783,-33152z"/>
 </g>
</svg>
