<?xml version="1.0" encoding="UTF-8"?>
<!DOCTYPE svg PUBLIC "-//W3C//DTD SVG 1.1//EN" "http://www.w3.org/Graphics/SVG/1.1/DTD/svg11.dtd">
<!-- Creator: CorelDRAW X7 -->
<svg xmlns="http://www.w3.org/2000/svg" xml:space="preserve" width="42px" height="44px" version="1.1" style="shape-rendering:geometricPrecision; text-rendering:geometricPrecision; image-rendering:optimizeQuality; fill-rule:evenodd; clip-rule:evenodd"
viewBox="0 0 2572 2719"
 xmlns:xlink="http://www.w3.org/1999/xlink">
 <defs>
  <style type="text/css">
   <![CDATA[
    .fil0 {fill:#4D4D4D}
   ]]>
  </style>
 </defs>
 <g id="Слой_x0020_1">
  <metadata id="CorelCorpID_0Corel-Layer"/>
  <path class="fil0" d="M2302 0c-72,4 -138,39 -188,89l-903 896c-83,83 -127,201 -122,319 11,248 224,451 474,440 125,-6 229,-61 315,-149 177,-178 531,-917 637,-1140 32,-71 60,-148 56,-226 -6,-140 -135,-235 -269,-229zm-1272 1586c-332,30 -525,97 -636,430 -12,35 -41,57 -78,59 -63,2 -260,-141 -316,-176 20,453 255,842 755,819 422,-19 701,-321 674,-741l-7 -104c-164,-36 -309,-142 -392,-287z"/>
 </g>
</svg>
