<?xml version="1.0" encoding="UTF-8"?>
<!DOCTYPE svg PUBLIC "-//W3C//DTD SVG 1.1//EN" "http://www.w3.org/Graphics/SVG/1.1/DTD/svg11.dtd">
<!-- Creator: CorelDRAW X7 -->
<svg xmlns="http://www.w3.org/2000/svg" xml:space="preserve" width="171px" height="171px" version="1.1" style="shape-rendering:geometricPrecision; text-rendering:geometricPrecision; image-rendering:optimizeQuality; fill-rule:evenodd; clip-rule:evenodd"
viewBox="0 0 1553 1553"
 xmlns:xlink="http://www.w3.org/1999/xlink">
 <defs>
  <style type="text/css">
   <![CDATA[
    .str0 {stroke:black;stroke-width:6.82936;stroke-dasharray:1365.267432}
    .fil1 {fill:black}
    .fil0 {fill:#FFCC00}
   ]]>
    .fil0 {
      stroke-dasharray: 1100;
      stroke-dashoffset:0;
      fill:#FFCC00;
      -webkit-animation: dashlogo 1s linear forwards;
      -o-animation: dashlogo 1s linear forwards;
      -moz-animation: dashlogo 1s linear forwards;
      <!-- animation: dashlogo 2s linear forwards; -->
    }
    @-webkit-keyframes dashlogo {
      0% { stroke-dashoffset: 1100; fill:white }
      90% { stroke-dashoffset: 0; fill:white }
      100% { fill: #ffcc00 }
    }
    @-moz-keyframes dashlogo {
      0% { stroke-dashoffset: 1100; fill:white }
      90% { stroke-dashoffset: 0; fill:white }
      100% { fill: #ffcc00 }
    }
    @keyframes dashlogo {
      0% { stroke-dashoffset: 1100; fill:white }
      90% { stroke-dashoffset: 0; fill:white }
      100% { fill: #ffcc00 }
    }
    .fil1 {
      stroke-dasharray: 2375;
      stroke-dashoffset:0;
      fill: white;
      -webkit-animation: dash 2s linear forwards;
      -o-animation: dash 2s linear forwards;
      -moz-animation: dash 2s linear forwards;
      <!-- animation: dash 2s linear forwards; -->
    }
    @-webkit-keyframes dash {
      0% { stroke-dashoffset: 2375; fill:white }
      90% { stroke-dashoffset: 0; fill:white }
      100% { fill:#000000 }
    }
    @-moz-keyframes dash {
      0% { stroke-dashoffset: 2375; fill:white }
      90% { stroke-dashoffset: 0; fill:white }
      100% { fill:#000000 }
    }
    @keyframes dash {
      0% { stroke-dashoffset: 2375; fill:white }
      90% { stroke-dashoffset: 0; fill:white }
      100% { fill:#000000 }
    }
  </style>
 </defs>
  <polygon class="fil0 str0" points="3,3 1550,3 1550,1550 3,1550 "/>
  <path class="fil1 str0" d="M259 403l25 0 8 0 1 8 33 202 37 -197 1 -8 8 0 24 0 7 0 2 7 37 196 31 -200 1 -8 7 0 25 0 11 0 -2 11 -50 309 -1 8 -8 0 -23 0 -7 0 -2 -7 -40 -210 -40 210 -1 7 -8 0 -23 0 -8 0 -1 -8 -53 -309 -1 -10 10 -1zm277 236l0 -56c0,-11 1,-21 2,-30 1,-9 3,-17 5,-24l0 0c3,-7 6,-14 10,-19 4,-5 8,-9 14,-13 5,-3 11,-5 17,-6 7,-2 14,-3 21,-3 5,0 10,1 15,1 4,1 8,2 12,4 4,1 8,3 11,5 3,2 6,4 9,7 3,3 5,6 7,10 2,4 4,8 5,12l0 0c2,4 3,8 4,13 1,4 2,9 2,14l0 0c1,5 1,10 1,16 0,6 1,12 1,19l0 0 -1 20 0 9 -9 0 -80 0 0 24c0,11 1,20 2,28 1,7 2,12 4,16l0 0c1,3 3,6 6,7 3,2 6,2 11,2 4,0 7,0 9,-1 3,-1 5,-3 6,-5l0 0c2,-2 3,-5 4,-9 1,-5 2,-11 2,-18l0 -16 0 -9 9 0 27 0 9 0 0 9 0 13c0,11 -1,21 -3,30 -3,10 -7,18 -12,25 -5,7 -13,12 -21,16 -9,3 -19,5 -30,5 -12,0 -22,-2 -31,-6 -9,-4 -16,-10 -22,-18l0 0c-5,-7 -9,-17 -12,-30 -3,-12 -4,-26 -4,-42zm46 -56l44 0 0 -9c0,-7 0,-14 0,-18 -1,-2 -1,-5 -1,-7 -1,-3 -1,-5 -2,-7l0 0c0,-2 -1,-4 -1,-5 -1,-2 -1,-3 -2,-3l0 0c-1,-2 -3,-3 -5,-5l0 0c-1,0 -3,-1 -4,-1 -2,0 -4,0 -6,0 -5,0 -8,0 -11,2 -2,1 -4,3 -6,5l0 0c-2,3 -3,8 -4,15 -1,7 -2,17 -2,28l0 5zm188 111c1,0 1,1 2,1 4,0 8,-1 10,-3 2,-2 4,-4 5,-8l0 0c2,-5 3,-11 4,-20 1,-8 2,-19 2,-31l0 -47c0,-12 -1,-22 -2,-30 -1,-8 -2,-14 -4,-18l1 0c-2,-3 -4,-6 -6,-7 -2,-2 -6,-3 -10,-3 -8,0 -16,4 -25,12l0 108 0 36 0 10 23 0zm-69 0l0 -278 0 -9 9 0 28 0 9 0 0 9 0 84c2,-1 4,-3 6,-4 8,-4 17,-6 27,-6 5,0 9,1 13,2 5,1 9,2 13,4l0 0c3,2 7,4 10,7 3,3 5,6 7,9l0 0c3,3 4,6 6,10 2,4 3,8 4,12l0 0c1,4 2,8 3,12 1,4 1,9 2,13 0,4 0,8 1,12 0,5 0,10 0,14l0 46c0,5 0,11 -1,17l0 0c0,5 0,10 -1,15l0 0c0,4 -1,9 -2,13l0 0c-1,5 -2,9 -3,13 -2,5 -3,9 -5,12 -2,4 -4,7 -6,10l0 0c-3,4 -6,6 -9,9l0 0c-3,2 -6,4 -10,6l0 0c-4,2 -8,3 -12,4 -4,1 -8,1 -13,1l-1 0 0 0 -81 0c3,-19 3,-20 6,-37zm-440 359l0 -225 0 -9 9 0 28 0 9 0 0 9 0 226c0,4 0,7 0,11 0,3 1,6 1,9l0 0c0,2 1,5 2,7 0,3 1,5 2,8l0 0c1,2 2,4 3,6 1,2 3,3 4,5l0 0c1,1 3,2 5,3l0 0c2,1 4,2 6,3 3,1 6,2 9,2 3,1 6,1 10,1 4,0 8,0 12,-1 3,-1 6,-2 9,-3l0 0c2,-1 5,-3 7,-4 2,-2 3,-4 5,-6l0 0c1,-3 2,-5 4,-8l0 0c1,-3 2,-6 2,-9l0 0c1,-4 2,-7 2,-11 0,-4 1,-8 1,-13l0 -226 0 -9 9 0 28 0 9 0 0 9 0 225c0,6 -1,11 -1,16 0,5 -1,10 -2,15l0 0c0,5 -2,9 -3,14 -2,4 -3,9 -5,13l0 0c-2,4 -5,8 -8,12l0 0c-3,3 -6,7 -9,10l0 0c-4,3 -7,5 -12,7 -4,3 -9,5 -14,6 -5,2 -10,3 -16,4 -6,1 -12,1 -18,1 -7,0 -13,0 -19,-1 -6,-1 -11,-2 -16,-4l0 0c-6,-1 -10,-3 -15,-6 -4,-2 -8,-5 -11,-7 -4,-3 -7,-7 -10,-10 -2,-4 -5,-8 -7,-12l0 0c-2,-5 -3,-9 -5,-13 -1,-5 -2,-9 -3,-14l0 0c-1,-4 -1,-9 -2,-15 0,-5 0,-10 0,-16zm212 85l0 -310 0 -9 9 0 28 0 9 0 0 9 0 167 57 -83 3 -4 5 0 29 0 17 0 -9 14 -53 81 51 132 5 12 -13 0 -28 0 -6 0 -3 -6 -40 -104 -15 20 0 81 0 9 -9 0 -28 0 -9 0 0 -9zm164 0l0 -221 0 -9 9 0 28 0 9 0 0 9 0 5c3,-3 6,-5 10,-7l0 0c5,-3 10,-5 15,-7 6,-2 11,-2 17,-2 2,0 4,0 6,0l8 1 8 2 -8 50c-8,-4 -14,-7 -23,-7 -7,0 -14,1 -19,5 -5,3 -10,8 -14,14l0 167 0 9 -9 0 -28 0 -9 0 0 -9zm160 -52c0,4 1,8 1,11 1,3 2,5 4,7 1,1 3,3 5,3 2,1 4,2 6,2l1 0 26 0 0 -20 0 -4 0 -47 -4 2 0 0 -6 3c-2,1 -4,2 -6,3l0 0c-2,1 -4,2 -5,4 -2,1 -3,1 -4,2 -14,11 -18,18 -18,34zm-46 4c0,-4 0,-8 0,-12l0 0c1,-3 1,-7 2,-10l0 0c1,-3 2,-7 3,-10 2,-3 3,-6 5,-9l0 0c2,-3 4,-5 6,-8 2,-2 4,-5 7,-7l0 0c2,-2 5,-4 8,-7 3,-2 7,-4 11,-6l0 0c3,-3 7,-5 11,-7 4,-2 8,-4 11,-6l1 0c3,-2 8,-4 14,-7 3,-1 6,-3 10,-4l0 -10c0,-10 -1,-18 -2,-24 -1,-6 -2,-11 -3,-13l0 0c-1,-3 -3,-4 -5,-5 -2,-1 -5,-2 -9,-2 -7,0 -12,2 -15,6 -4,5 -6,12 -6,23l0 8 0 9 -9 0 -28 -1 -9 -1 0 -8c0,-1 0,-3 0,-5 0,-1 0,-2 0,-3 1,-11 3,-20 5,-29 4,-8 8,-16 14,-21l0 0c6,-6 14,-10 22,-13l0 0c8,-2 18,-3 28,-3 11,0 20,1 28,4 9,4 16,9 21,16l0 0c5,7 8,16 10,26 3,10 4,21 4,34l0 88 0 19 0 0 0 1 0 0 0 8 0 9 6 37 -6 0 -7 0 -74 0 -1 0c-7,0 -14,-1 -21,-4 -7,-3 -12,-7 -17,-13l0 0c-5,-6 -9,-12 -11,-19 -3,-6 -4,-14 -4,-21zm170 48l0 -221 0 -9 9 0 28 0 9 0 0 9 0 221 0 9 -9 0 -28 0 -9 0 0 -9zm0 -261l0 -31 0 -7 9 0 28 0 9 0 0 7 0 31 0 8 -9 0 -28 0 -9 0 0 -8zm84 261l0 -221 0 -9 9 0 28 0 9 0 0 9 0 2c4,-2 8,-5 12,-7 10,-5 21,-7 32,-7 7,0 13,1 18,3l0 0c6,3 10,7 14,13l0 0c4,5 7,11 8,17 2,7 3,14 3,23l0 177 0 9 -9 0 -28 0 -9 0 0 -9 0 -172c0,-5 -1,-9 -1,-12 -1,-3 -2,-5 -3,-6l0 0c-1,-1 -1,-2 -3,-3l0 0c-1,0 -3,-1 -5,-1 -5,0 -10,2 -15,4 -4,3 -9,7 -14,12l0 178 0 9 -9 0 -28 0 -9 0 0 -9zm161 -83l0 -56c0,-11 0,-21 1,-30 2,-9 3,-17 6,-24l0 0c2,-7 5,-13 9,-19 4,-5 9,-9 14,-13 5,-3 11,-5 18,-6 6,-2 13,-2 21,-2 5,0 9,0 14,1 4,0 9,1 13,3 3,1 7,3 10,5 4,2 7,4 9,7 3,3 5,6 7,10 2,4 4,8 6,12l0 0c1,4 2,8 3,13 1,4 2,9 2,14l0 0c1,5 1,10 2,16 0,6 0,12 0,19l0 0 0 20 0 9 -9 0 -80 0 0 24c0,11 0,20 1,28 1,7 3,12 4,16l0 0c2,3 4,6 6,7 3,2 7,2 11,2 4,0 7,0 10,-1 2,-1 4,-3 6,-5l0 0c1,-2 3,-5 4,-9 1,-5 1,-11 1,-18l0 -16 0 -9 9 0 28 0 9 0 0 9 0 13c0,11 -1,21 -4,30 -2,10 -6,18 -12,25 -5,7 -12,12 -21,16 -8,3 -18,5 -30,5 -11,0 -22,-2 -31,-6 -9,-4 -16,-10 -22,-18l0 0c-5,-7 -9,-17 -12,-30 -2,-12 -3,-26 -3,-42zm46 -56l43 0 0 -9c0,-7 0,-14 0,-18 0,-2 -1,-5 -1,-7 0,-3 -1,-5 -1,-7l0 0c-1,-2 -1,-4 -2,-5 0,-2 -1,-3 -2,-3l0 0c-1,-2 -3,-3 -5,-5l0 0c-1,0 -3,0 -4,-1 -2,0 -4,0 -6,0 -4,0 -8,0 -11,2 -2,1 -4,3 -6,5l0 0c-1,4 -3,8 -4,15 -1,7 -1,17 -1,28l0 5z"/>
</svg>
