<?xml version="1.0" encoding="UTF-8"?>
<!DOCTYPE svg PUBLIC "-//W3C//DTD SVG 1.1//EN" "http://www.w3.org/Graphics/SVG/1.1/DTD/svg11.dtd">
<svg xmlns="http://www.w3.org/2000/svg" xml:space="preserve" width="170px" height="171px" version="1.1" style="shape-rendering:geometricPrecision; text-rendering:geometricPrecision; image-rendering:optimizeQuality; fill-rule:evenodd; clip-rule:evenodd" viewBox="0 0 1715 1719" xmlns:xlink="http://www.w3.org/1999/xlink">
 <defs>
  <style type="text/css">
   <![CDATA[
    .str0 {stroke:black;stroke-width:7.55406;stroke-dasharray:1510.144491}
    .fil0 {fill:none;fill-rule:nonzero}
    .fil1 {fill:black}
   ]]>
    .rect {
      fill:#FFCC00;
      -webkit-animation: dashlogo 2s linear forwards;
      -o-animation: dashlogo 2s linear forwards;
      -moz-animation: dashlogo 2s linear forwards;
      <!-- animation: dashlogo 2s linear forwards; -->
    }
    @-webkit-keyframes dashlogo {
      0%   { fill: #ffffff }
      90%  { fill: #ffffff }
      100% { fill: #ffcc00 }
    }
    @-moz-keyframes dashlogo {
      0%   { fill: #ffffff }
      90%  { fill: #ffffff }
      100% { fill: #ffcc00 }
    }
    @keyframes dashlogo {
      0%   { fill: #ffffff }
      90%  { fill: #ffffff }
      100% { fill: #ffcc00 }
    }
    .str0 {
      stroke-dasharray: 2375;
      stroke-dashoffset:0;
      fill: white;
      -webkit-animation: dash 2s linear forwards;
      -o-animation: dash 2s linear forwards;
      -moz-animation: dash 2s linear forwards;
      <!-- animation: dash 2s linear forwards; -->
    }
    @-webkit-keyframes dash {
      0% { stroke-dashoffset: 2375; fill:white }
      90% { stroke-dashoffset: 0; fill:white }
      100% { fill:#000000 }
    }
    @-moz-keyframes dash {
      0% { stroke-dashoffset: 2375; fill:white }
      90% { stroke-dashoffset: 0; fill:white }
      100% { fill:#000000 }
    }
    @keyframes dash {
      0% { stroke-dashoffset: 2375; fill:white }
      90% { stroke-dashoffset: 0; fill:white }
      100% { fill:#000000 }
    }
  </style>
 </defs>
  <rect class="fil0 rect" width="1714" height="1714"/>
  <line class="fil0 str0" x1="0" y1="0" x2="0" y2= "1715" />
  <line class="fil0 str0" x1="1711" y1="0" x2="1711" y2= "1715" />
  <line class="fil0 str0" x1="0" y1="1714" x2="1715" y2= "1715" />
  <line class="fil0 str0" x1="0" y1="0" x2="1715" y2= "0" />
  <path class="fil1 str0" d="M286 446l27 0 8 0 2 9 36 223 41 -218 2 -9 8 0 27 0 8 0 1 9 42 215 33 -220 2 -9 8 0 27 0 12 0 -2 12 -55 342 -1 9 -9 0 -25 0 -8 0 -2 -9 -44 -231 -44 231 -2 9 -8 0 -26 0 -9 0 -1 -9 -58 -342 -2 -12 12 0zm306 261l0 -62c0,-12 1,-23 2,-33 1,-10 3,-19 6,-27l0 0c3,-8 6,-15 10,-21 5,-5 10,-10 16,-14 5,-3 12,-6 19,-7 7,-2 15,-3 23,-3 6,0 11,1 16,1 5,1 10,2 14,4 4,2 8,3 12,6 4,2 7,5 10,8 3,3 5,6 8,11 2,4 4,8 6,13l0 0c1,4 2,9 3,14 1,5 2,10 3,16l0 0c0,5 1,11 1,18 0,6 1,13 1,20l0 0 -1 22 0 10 -10 0 -88 0 0 27c0,12 0,22 2,31 1,8 2,14 4,18l0 0c2,4 4,6 7,7 3,2 7,3 12,3 4,0 7,-1 10,-2 3,-1 5,-2 7,-5l0 0c2,-2 3,-5 4,-10 2,-5 2,-12 2,-20l0 -17 0 -10 10 0 30 0 10 0 0 10 0 13c0,13 -1,25 -4,35 -2,10 -7,19 -13,26 -6,8 -14,14 -23,18 -10,4 -21,5 -33,5 -13,0 -25,-2 -34,-6 -10,-4 -19,-11 -25,-19l0 0c-6,-9 -10,-20 -13,-34 -3,-13 -4,-28 -4,-46zm51 -62l48 0 0 -10c0,-8 0,-15 0,-20 -1,-3 -1,-5 -1,-8 -1,-3 -1,-5 -2,-8l0 0c0,-2 -1,-4 -2,-5 0,-2 -1,-3 -1,-4l0 0c-2,-2 -4,-3 -6,-4l0 0c-2,-1 -3,-1 -5,-2 -2,0 -4,0 -6,0 -5,0 -9,0 -12,2 -3,1 -5,3 -7,6l0 0c-2,4 -3,9 -4,16 -2,9 -2,19 -2,31l0 6zm207 123c1,0 2,0 3,0 5,0 8,-1 11,-3 2,-1 4,-4 6,-8l0 0c2,-6 3,-13 4,-22 1,-10 2,-21 2,-35l0 -52c0,-13 -1,-24 -2,-33 -1,-8 -2,-15 -4,-20l0 0c-2,-4 -4,-6 -6,-8 -3,-2 -7,-2 -11,-2 -9,0 -19,4 -28,13l0 119 0 39 0 12 25 0zm-76 0l0 -308 0 -10 10 0 31 0 10 0 0 10 0 93c2,-2 4,-3 6,-4 10,-5 20,-7 30,-7 6,0 11,1 15,2 5,1 10,3 14,5l0 0c4,2 8,5 11,7 3,3 6,7 9,10l0 0c2,4 4,7 6,11 1,4 3,9 4,14l0 0c2,4 3,8 4,13 0,5 1,9 1,14 1,4 1,9 1,14 1,5 1,11 1,15l0 51c0,6 -1,12 -1,18l0 0c0,6 -1,12 -1,17l0 0c-1,5 -1,10 -3,15l0 0c-1,5 -2,10 -3,15 -2,4 -4,9 -6,13 -2,4 -4,8 -7,11l0 0c-2,3 -5,6 -9,9l0 0c-3,3 -7,5 -11,7l0 0c-4,2 -8,3 -13,4 -5,1 -10,2 -15,2l-1 0 0 0 -90 0c4,-22 4,-23 7,-41zm-487 397l0 -249 0 -10 10 0 31 0 10 0 0 10 0 250c0,4 0,8 0,11 1,4 1,7 1,11l0 0c1,2 1,5 2,8 1,3 2,6 3,8l0 0c1,3 2,5 3,7 2,2 3,4 4,5l1 0c1,2 3,3 5,4l0 0c2,2 4,3 7,4 3,1 6,1 9,2 4,0 8,1 12,1 4,0 9,-1 13,-1 3,-1 7,-2 10,-4l0 0c3,-1 5,-3 7,-4 2,-2 4,-5 6,-7l0 0c1,-3 3,-6 4,-9l0 0c2,-3 3,-7 3,-10l0 0c1,-4 2,-8 2,-12 1,-4 1,-9 1,-14l0 -250 0 -10 10 0 31 0 10 0 0 10 0 249c0,6 0,12 -1,18 0,5 -1,11 -2,16l0 0c-1,5 -2,10 -4,15 -1,5 -3,10 -5,15l0 0c-3,4 -5,9 -9,13l0 0c-3,4 -6,8 -10,11l0 0c-4,3 -8,6 -13,8 -5,3 -10,5 -15,7 -6,2 -12,3 -18,4 -7,1 -14,1 -20,1 -8,0 -14,0 -21,-1 -6,-1 -13,-2 -18,-4l0 0c-6,-2 -11,-4 -16,-7 -5,-2 -9,-5 -13,-8 -4,-4 -7,-7 -10,-11 -3,-4 -6,-9 -8,-14l0 0c-2,-4 -4,-9 -6,-14 -1,-5 -3,-10 -3,-15l0 0c-1,-5 -2,-10 -2,-16 -1,-6 -1,-12 -1,-18zm235 93l0 -342 0 -10 10 0 31 0 10 0 0 10 0 185 63 -92 3 -5 5 0 33 0 19 0 -10 16 -59 90 57 145 5 14 -15 0 -31 0 -7 0 -2 -7 -45 -115 -16 22 0 89 0 10 -10 0 -31 0 -10 0 0 -10zm181 1l0 -245 0 -10 10 0 31 0 10 0 0 10 0 6c3,-3 7,-6 11,-8l0 0c6,-3 11,-6 17,-8 6,-1 12,-2 18,-2 3,0 5,0 7,0l9 1 9 2 -9 55c-9,-3 -16,-7 -25,-7 -8,0 -15,2 -22,5 -5,4 -11,9 -15,16l0 185 0 10 -10 0 -31 0 -10 0 0 -10zm177 -58c0,5 1,9 2,13 1,3 2,5 4,7 1,2 3,3 5,4 2,1 5,1 8,1l0 0 28 0 0 -21 0 -5 0 -52 -4 2 0 0 -6 3c-2,2 -5,3 -7,4l0 0c-2,2 -4,3 -6,4 -1,1 -3,2 -4,3 -15,12 -20,20 -20,37zm-51 4c0,-4 1,-8 1,-12l0 0c0,-4 1,-8 2,-11l0 -1c0,-3 2,-7 3,-11 2,-3 4,-7 6,-10l0 0c2,-3 4,-6 6,-8 3,-3 5,-6 8,-8l0 0c2,-3 5,-5 9,-8 3,-2 7,-5 11,-7l0 0c4,-3 9,-5 13,-7 4,-3 8,-5 13,-7l0 0c4,-2 9,-4 15,-7 4,-2 8,-4 11,-5l0 -11c0,-11 0,-20 -1,-27 -1,-7 -2,-11 -4,-15l0 0c-1,-2 -3,-4 -5,-5 -2,-1 -5,-2 -10,-2 -8,0 -14,2 -17,7 -4,5 -6,13 -6,25l0 9 0 10 -11 -1 -31 -1 -9 0 0 -9c0,-2 0,-3 0,-6 0,-1 0,-2 0,-3 1,-12 3,-22 6,-32 3,-9 8,-17 15,-23l0 0c7,-7 15,-11 24,-14l0 0c9,-3 19,-5 31,-5 12,0 23,2 31,6 10,4 17,10 23,18l0 0c5,7 9,16 12,28 2,11 3,24 3,38l0 97 0 21 0 0 0 0 0 1 0 8 0 11 7 41 -7 0 -6 0 -83 0 -1 0c-8,0 -16,-2 -23,-5 -7,-3 -14,-8 -19,-14l0 0c-6,-6 -10,-13 -13,-21 -2,-7 -4,-15 -4,-24zm188 54l0 -245 0 -10 10 0 31 0 10 0 0 10 0 245 0 10 -10 0 -31 0 -10 0 0 -10zm0 -289l0 -34 0 -8 10 0 31 0 10 0 0 8 0 34 0 9 -10 0 -31 0 -10 0 0 -9zm93 289l0 -245 0 -10 10 0 31 0 10 0 0 10 0 3c4,-3 9,-6 14,-8 11,-6 23,-9 35,-9 7,0 14,2 20,5l0 0c6,3 11,7 16,13l0 0c4,6 7,12 9,20 1,7 2,15 2,25l0 196 0 10 -10 0 -31 0 -10 0 0 -10 0 -190c0,-6 0,-10 -1,-14 -1,-3 -1,-5 -3,-7l0 0c0,-1 -1,-2 -3,-2l0 0c-1,-1 -3,-1 -6,-1 -5,0 -10,1 -16,4 -5,3 -11,7 -16,12l0 198 0 10 -10 0 -31 0 -10 0 0 -10zm178 -92l0 -62c0,-12 1,-23 2,-33 1,-10 3,-19 6,-27l0 0c3,-8 6,-15 10,-20 5,-6 10,-11 16,-15 5,-3 12,-5 19,-7 7,-2 15,-3 23,-3 6,0 11,1 16,2 5,0 10,2 14,3 4,2 8,4 12,6 4,2 7,5 10,8 3,3 6,7 8,11 2,4 4,8 6,13l0 0c1,5 2,9 4,14 1,5 1,11 2,16l0 0c1,5 1,11 1,18 1,6 1,13 1,20l0 0 -1 22 0 10 -10 0 -88 0 0 27c0,12 1,23 2,31 1,8 2,14 4,18l0 0c2,4 4,6 7,8 3,1 7,2 12,2 4,0 7,0 10,-2 3,-1 5,-2 7,-4l0 0c2,-3 3,-6 4,-11 2,-5 2,-12 2,-20l0 -17 0 -10 10 0 30 0 11 0 0 10 0 14c0,12 -2,24 -5,34 -2,10 -7,19 -12,27 -7,7 -14,13 -24,17 -10,4 -20,6 -33,6 -13,0 -24,-2 -34,-7 -10,-4 -18,-11 -25,-19l0 0c-6,-9 -10,-20 -13,-33 -3,-14 -4,-29 -4,-47zm51 -62l48 0 0 -10c0,-8 0,-15 0,-20 0,-3 -1,-5 -1,-8 -1,-3 -1,-5 -2,-7l0 0c0,-3 -1,-5 -1,-6 -1,-2 -2,-3 -2,-4l0 0c-2,-1 -4,-3 -6,-4l0 0c-1,-1 -3,-1 -5,-2 -2,0 -4,0 -6,0 -5,0 -9,1 -12,2 -3,2 -5,4 -7,6l0 0c-2,4 -3,9 -4,17 -1,8 -2,18 -2,30l0 6z"/>
</svg>
