<?xml version="1.0" encoding="UTF-8"?>
<!DOCTYPE svg PUBLIC "-//W3C//DTD SVG 1.1//EN" "http://www.w3.org/Graphics/SVG/1.1/DTD/svg11.dtd">
<!-- Creator: CorelDRAW X7 -->
<svg xmlns="http://www.w3.org/2000/svg" xml:space="preserve" width="120px" height="23px" version="1.1" style="shape-rendering:geometricPrecision; text-rendering:geometricPrecision; image-rendering:optimizeQuality; fill-rule:evenodd; clip-rule:evenodd"
viewBox="0 0 1602 306"
 xmlns:xlink="http://www.w3.org/1999/xlink">
 <defs>
  <style type="text/css">
   <![CDATA[
    .fil0 {fill:black}
   ]]>
  </style>
 </defs>
 <g id="Слой_x0020_1">
  <metadata id="CorelCorpID_0Corel-Layer"/>
  <path class="fil0" d="M10 0l22 0 8 0 1 7 30 186 34 -182 2 -7 6 0 23 0 6 0 2 7 34 180 28 -184 1 -7 7 0 23 0 10 0 -2 10 -46 285 -1 7 -7 0 -21 0 -7 0 -1 -7 -37 -193 -37 193 -1 7 -7 0 -22 0 -7 0 -1 -7 -48 -285 -2 -10 10 0zm255 217l0 -51c0,-11 0,-20 1,-28 1,-9 3,-16 5,-22l0 0c3,-7 6,-13 9,-17 4,-5 8,-9 13,-12 4,-3 10,-5 16,-7 6,-1 12,-1 19,-1 5,0 9,0 13,0 5,1 9,2 12,3 4,2 7,3 10,5 3,2 6,4 8,7 3,2 5,5 7,9 2,3 3,7 5,11l0 0c1,4 2,8 3,12 1,4 1,8 2,13l0 0c0,4 1,9 1,15 0,5 0,11 0,17l0 0 0 18 0 8 -8 0 -74 0 0 22c0,11 1,19 2,26 1,7 2,12 4,16l-1 0c2,2 4,4 6,6 2,1 6,2 10,2 3,0 6,-1 9,-2 2,0 4,-2 5,-4l0 0c2,-1 3,-4 4,-8 1,-5 1,-10 1,-17l0 -14 0 -9 9 0 25 0 8 0 0 9 0 11c0,11 -1,20 -3,28 -3,9 -6,17 -11,23 -5,6 -12,11 -20,14 -7,4 -17,5 -27,5 -11,0 -20,-2 -28,-5 -9,-4 -16,-9 -21,-17l0 0c-5,-6 -8,-16 -11,-27 -2,-11 -3,-24 -3,-39zm42 -51l40 0 0 -9c0,-7 0,-12 0,-17 0,-2 0,-4 -1,-6 0,-2 -1,-4 -1,-6l0 0c0,-2 -1,-4 -2,-5 0,-1 -1,-2 -1,-3l0 0c-1,-2 -3,-3 -5,-4l0 0c-1,0 -2,-1 -4,-1 -1,0 -3,0 -5,0 -4,0 -7,0 -10,2 -2,1 -4,2 -5,5l0 0c-2,3 -3,7 -4,13 -1,7 -2,15 -2,26l0 5zm173 102c0,0 1,0 2,0 4,0 7,-1 9,-2 2,-2 4,-4 5,-7l0 0c2,-5 3,-11 4,-19 1,-8 1,-17 1,-29l0 -43c0,-11 0,-20 -1,-27 -1,-7 -2,-13 -4,-17l0 0c-1,-3 -3,-5 -5,-6 -2,-2 -5,-3 -9,-3 -8,0 -15,4 -23,11l0 99 0 33 0 10 21 0zm-64 0l0 -257 0 -8 8 0 26 0 9 0 0 8 0 78c1,-1 3,-2 5,-3 8,-4 16,-6 25,-6 4,0 9,0 13,1 4,1 7,3 11,5l0 0c3,1 6,4 9,6 3,2 5,5 7,8l0 0c2,3 4,6 5,9 2,4 3,7 4,11l0 0c1,4 2,8 3,12 1,4 1,7 1,11 1,4 1,8 1,12 0,4 0,9 0,13l0 42c0,5 0,10 0,15l0 0c0,5 -1,10 -1,14l0 0c-1,4 -1,8 -2,13l0 0c-1,4 -2,8 -3,12 -1,3 -3,7 -5,10 -1,4 -3,7 -5,10l0 0c-3,3 -5,5 -8,7l0 0c-3,3 -6,5 -9,6l0 0c-4,2 -7,3 -11,4 -4,0 -8,1 -13,1l-1 0 0 0 -74 0c3,-18 3,-19 5,-34zm228 -52l0 -207 0 -9 8 0 26 0 8 0 0 9 0 208c0,3 0,6 1,9 0,3 0,6 1,9l0 0c0,2 0,4 1,7 1,2 1,4 2,7l0 0c1,2 2,4 3,5 1,2 2,3 4,4l0 0c1,2 2,3 4,4l0 0c2,1 4,2 6,3 2,0 5,1 8,2 3,0 6,0 9,0 4,0 8,0 11,-1 3,0 6,-1 8,-2l0 0c3,-2 5,-3 7,-4 2,-2 3,-4 4,-6l0 0c2,-2 3,-5 4,-7l0 0c1,-3 2,-6 3,-9l0 0c0,-3 1,-6 1,-10 0,-3 1,-7 1,-11l0 -208 0 -9 8 0 26 0 8 0 0 9 0 207c0,5 0,10 0,15 -1,4 -1,9 -2,13l0 0c-1,4 -2,9 -3,13 -2,4 -3,8 -5,12l0 0c-2,4 -4,7 -7,11l0 0c-2,3 -5,6 -9,9l0 0c-3,3 -6,5 -10,7 -4,2 -9,4 -13,5 -5,2 -10,3 -15,4 -6,0 -11,1 -17,1 -6,0 -11,-1 -17,-1 -5,-1 -10,-2 -15,-4l0 0c-5,-1 -9,-3 -13,-5 -4,-2 -8,-4 -11,-7 -3,-3 -6,-6 -9,-9 -2,-4 -4,-7 -6,-11l0 0c-2,-4 -4,-8 -5,-12 -1,-4 -2,-9 -3,-13l0 0c-1,-4 -1,-8 -2,-13 0,-5 0,-10 0,-15zm195 77l0 -285 0 -8 9 0 25 0 9 0 0 8 0 155 52 -77 3 -4 4 0 28 0 15 0 -8 13 -49 75 47 121 5 11 -13 0 -26 0 -5 0 -2 -5 -38 -96 -13 19 0 73 0 9 -9 0 -25 0 -9 0 0 -9zm151 1l0 -203 0 -9 9 0 25 0 9 0 0 9 0 4c2,-2 6,-5 9,-6l0 0c4,-3 9,-5 14,-7 5,-1 10,-2 15,-2 2,0 4,0 6,0l7 1 8 2 -8 46c-7,-3 -13,-7 -21,-7 -6,0 -12,2 -18,5 -4,3 -9,7 -12,13l0 154 0 8 -9 0 -25 0 -9 0 0 -8zm148 -48c0,4 0,7 1,10 1,3 2,5 3,6 2,2 3,3 5,4 2,0 4,1 6,1l0 0 24 0 0 -18 0 -4 0 -44 -4 2 0 0 -4 3c-3,1 -5,2 -6,3l0 0c-2,1 -4,2 -5,3 -2,1 -3,2 -4,3 -13,10 -16,16 -16,31zm-43 3c0,-3 1,-7 1,-10l0 0c0,-3 1,-7 1,-9l0 0c1,-4 2,-7 3,-10 2,-3 3,-6 5,-8l0 0c2,-3 3,-5 5,-7 2,-3 4,-5 6,-7l0 0c3,-2 5,-4 8,-6 3,-2 6,-4 10,-6l0 0c3,-2 7,-4 10,-6 4,-2 7,-4 11,-6l0 0c3,-1 7,-3 13,-6 3,-1 6,-3 9,-4l0 -9c0,-9 0,-17 -1,-22 -1,-6 -2,-10 -3,-13l0 0c-1,-2 -3,-3 -4,-4 -2,-1 -5,-2 -9,-2 -6,0 -11,2 -14,6 -4,4 -5,11 -5,21l0 7 0 8 -9 0 -26 -1 -8 0 0 -8c0,-1 0,-2 0,-4 0,-1 0,-2 0,-3 1,-10 3,-19 5,-26 3,-8 7,-15 13,-20l0 0c6,-5 12,-9 20,-12l0 0c8,-2 16,-3 26,-3 10,0 18,1 26,4 8,4 14,9 19,15l0 0c4,6 7,14 9,24 2,9 3,19 3,31l0 81 0 17 0 1 0 0 0 0 0 7 0 9 6 34 -6 0 -5 0 -69 0 0 0c-8,0 -14,-1 -20,-4 -6,-2 -11,-6 -16,-12l0 0c-5,-5 -8,-10 -10,-17 -3,-6 -4,-13 -4,-20zm157 45l0 -204 0 -8 8 0 26 0 8 0 0 8 0 204 0 8 -8 0 -26 0 -8 0 0 -8zm0 -240l0 -29 0 -6 8 0 26 0 8 0 0 6 0 29 0 7 -8 0 -26 0 -8 0 0 -7zm77 240l0 -204 0 -8 8 0 26 0 8 0 0 8 0 3c4,-3 8,-5 12,-7 9,-5 19,-7 29,-7 6,0 12,1 17,4l0 0c5,2 9,6 13,11l0 0c3,4 6,10 7,16 2,6 3,13 3,21l0 163 0 8 -9 0 -26 0 -8 0 0 -8 0 -158c0,-5 0,-9 -1,-12 0,-2 -1,-4 -2,-5l0 0c-1,-1 -2,-2 -3,-2l0 0c-1,-1 -3,-1 -5,-1 -4,0 -9,1 -13,3 -4,3 -9,6 -14,11l0 164 0 8 -8 0 -26 0 -8 0 0 -8zm148 -77l0 -51c0,-10 1,-19 2,-28 1,-8 2,-16 5,-22l0 0c2,-7 5,-12 8,-17 4,-5 8,-9 13,-12 5,-3 10,-5 16,-6 6,-1 13,-2 20,-2 4,0 9,0 13,1 4,0 8,1 11,3 4,1 7,3 10,5 3,2 6,4 9,6 2,3 4,6 6,9 2,4 4,7 5,11l0 0c1,4 2,8 3,12 1,4 2,9 2,13l0 0c1,5 1,10 1,15 1,6 1,11 1,17l0 0 0 18 -1 9 -8 0 -73 0 0 22c0,10 0,19 1,26 1,6 2,11 4,15l0 0c1,3 3,5 5,6 3,2 6,2 10,2 4,0 7,0 9,-1 2,-1 4,-2 6,-4l0 0c1,-2 2,-5 3,-9 1,-4 2,-10 2,-17l0 -14 0 -8 8 0 25 0 9 0 0 8 0 11c0,11 -2,20 -4,29 -2,8 -6,16 -11,22 -5,7 -11,12 -19,15 -8,3 -17,4 -28,4 -10,0 -20,-1 -28,-5 -8,-3 -15,-9 -20,-16l0 0c-5,-7 -9,-16 -11,-28 -3,-11 -4,-24 -4,-39zm43 -51l40 0 0 -8c0,-7 0,-13 -1,-17 0,-2 0,-4 0,-7 -1,-2 -1,-4 -2,-6l0 0c0,-2 -1,-3 -1,-5 -1,-1 -1,-2 -2,-3l0 0c-1,-1 -2,-2 -5,-3l0 0c-1,-1 -2,-1 -3,-2 -2,0 -4,0 -6,0 -4,0 -7,1 -10,2 -2,1 -4,3 -5,5l0 0c-2,3 -3,7 -4,14 -1,6 -1,15 -1,25l0 5z"/>
 </g>
</svg>
