<?xml version="1.0" encoding="UTF-8"?>
<!DOCTYPE svg PUBLIC "-//W3C//DTD SVG 1.1//EN" "http://www.w3.org/Graphics/SVG/1.1/DTD/svg11.dtd">
<!-- Creator: CorelDRAW X7 -->
<svg xmlns="http://www.w3.org/2000/svg" xml:space="preserve" width="120px" height="16px" version="1.1" style="shape-rendering:geometricPrecision; text-rendering:geometricPrecision; image-rendering:optimizeQuality; fill-rule:evenodd; clip-rule:evenodd"
viewBox="0 0 16016 2080"
 xmlns:xlink="http://www.w3.org/1999/xlink">
 <defs>
  <style type="text/css">
   <![CDATA[
    .fil0 {fill:black;fill-rule:nonzero}
   ]]>
  </style>
 </defs>
 <g id="Слой_x0020_1">
  <metadata id="CorelCorpID_0Corel-Layer"/>
  <g id="_127559099120">
   <path class="fil0" d="M15005 1075l593 0c-8,-105 -35,-182 -81,-233 -51,-54 -122,-81 -216,-81 -84,0 -154,27 -208,81 -55,55 -84,132 -88,233zm697 453l291 0c-43,162 -124,286 -244,371 -120,90 -271,134 -453,134 -221,0 -393,-72 -517,-215 -124,-139 -186,-339 -186,-598 0,-248 60,-442 180,-581 124,-143 296,-215 517,-215 232,0 412,70 540,209 124,143 186,343 186,598 0,16 0,30 0,41 0,12 0,19 0,23 0,20 -2,33 -6,41l-1005 0c4,120 33,209 88,267 50,62 125,93 226,93 66,0 122,-13 168,-40 12,-4 23,-11 32,-21 10,-10 21,-20 32,-32 4,-11 19,-27 44,-46 25,-19 61,-29 107,-29zm-1280 476l-204 0c-58,0 -105,-18 -142,-55 -37,-37 -55,-84 -55,-142l0 0 0 -790c0,-94 -28,-161 -85,-204 -56,-42 -119,-64 -189,-64 -69,0 -131,22 -185,64 -54,43 -82,110 -82,204l0 987 -406 0 0 -906c0,-263 69,-440 206,-529 137,-89 289,-137 456,-145 171,0 327,44 470,134 144,89 216,269 216,540l0 906zm-1915 -1998l209 0c55,0 101,19 140,58 39,39 58,85 58,139l0 122 -407 0 0 -319zm0 453l209 0c55,0 101,19 140,58 39,39 58,85 58,139l0 1348 -407 0 0 -1545zm-520 1481c-81,43 -167,69 -258,78 -91,10 -172,15 -241,15 -140,0 -262,-38 -366,-113 -105,-76 -157,-200 -157,-375 0,-163 47,-279 142,-348 95,-70 216,-116 363,-140 20,0 43,-3 70,-9 27,-5 58,-10 93,-14 170,-23 256,-73 256,-151 0,-58 -31,-96 -91,-113 -60,-18 -115,-26 -165,-26 -54,0 -103,7 -145,23 -43,15 -74,44 -93,87l-389 0c15,-120 69,-219 162,-296 105,-90 254,-134 447,-134 218,0 380,37 489,110 112,78 168,186 168,326l0 528c0,155 -28,276 -85,363 -56,87 -123,150 -200,189zm-93 -714c-54,27 -129,52 -226,75 -89,19 -134,29 -134,29 -69,20 -120,45 -151,76 -27,42 -41,85 -41,128 0,58 18,104 53,139 35,31 85,47 151,47 108,0 193,-32 255,-94 62,-62 93,-147 93,-255l0 -145zm-1949 778l0 -749c0,-151 23,-278 67,-381 45,-102 106,-184 183,-246 74,-59 160,-101 258,-128 100,-28 201,-41 306,-41 7,0 17,0 29,0 12,0 21,0 29,0l0 412 -134 0c-112,0 -195,28 -250,82 -54,54 -81,139 -81,255l0 796 -407 0zm-1199 -1545l0 0 0 569 494 -569 488 0 -552 592 558 953 -488 0 -285 -523c-58,-105 -109,-149 -151,-133 -43,15 -64,38 -64,69l0 215 0 372 -407 0 0 -1998 210 0c54,0 100,19 139,58 39,39 58,83 58,133l0 262zm-1809 -459l0 1249c0,155 28,269 87,343 62,70 160,104 296,104 132,0 230,-34 296,-104 62,-70 93,-184 93,-343l0 -1249 412 0 0 1295c0,248 -69,436 -208,564 -128,128 -326,192 -593,192 -267,0 -465,-64 -593,-192 -139,-128 -209,-316 -209,-564l0 -1074c0,-58 21,-109 61,-154 41,-45 90,-67 148,-67l210 0z"/>
   <path class="fil0" d="M575 2051l-575 -1998 424 0 343 1411 290 -1411 441 0 285 1411 308 -1261c24,-100 91,-150 203,-150l256 0 -569 1998 -395 0 -308 -1534 -314 1534 -389 0z"/>
   <path class="fil0" d="M3576 1574l291 0c-43,163 -124,287 -244,372 -120,89 -271,134 -453,134 -221,0 -393,-72 -517,-215 -124,-140 -186,-339 -186,-599 0,-247 60,-441 180,-580 124,-144 296,-216 517,-216 232,0 412,70 540,210 124,143 186,343 186,598 0,16 0,29 0,40 0,12 0,20 0,24 0,19 -2,33 -6,40l-1005 0c4,121 33,210 87,268 50,62 126,93 227,93 65,0 122,-14 168,-41 12,-4 22,-11 32,-20 10,-10 21,-20 32,-32 4,-12 18,-27 44,-46 25,-20 60,-30 107,-30zm-697 -453l592 0c-7,-104 -34,-182 -81,-232 -50,-54 -122,-82 -215,-82 -85,0 -155,28 -209,82 -54,54 -83,132 -87,232z"/>
   <path class="fil0" d="M4503 244l0 465c43,-74 105,-134 186,-180 70,-39 155,-59 256,-59 182,0 330,76 447,227 116,151 174,347 174,587 0,240 -58,436 -174,587 -58,73 -137,127 -236,159 -98,33 -196,50 -293,50 -186,0 -358,-49 -517,-145 -159,-98 -238,-283 -238,-558l0 -1330 197 0c55,0 101,19 140,58 39,38 58,85 58,139zm662 1022c0,-139 -29,-247 -87,-325 -58,-81 -137,-122 -238,-122 -108,0 -192,39 -250,116 -58,82 -87,192 -87,331 0,163 27,281 81,355 58,81 140,122 244,122 109,0 192,-41 250,-122 58,-81 87,-200 87,-355z"/>
  </g>
 </g>
</svg>
