<?xml version="1.0" encoding="UTF-8"?>
<!DOCTYPE svg PUBLIC "-//W3C//DTD SVG 1.1//EN" "http://www.w3.org/Graphics/SVG/1.1/DTD/svg11.dtd">
<!-- Creator: CorelDRAW X7 -->
<svg xmlns="http://www.w3.org/2000/svg" xml:space="preserve" width="170px" height="200px" version="1.1" style="shape-rendering:geometricPrecision; text-rendering:geometricPrecision; image-rendering:optimizeQuality; fill-rule:evenodd; clip-rule:evenodd"
viewBox="0 0 1585 1865"
 xmlns:xlink="http://www.w3.org/1999/xlink">
 <defs>
  <style type="text/css">
   <![CDATA[
    .str0 {stroke:#CCCCCC;stroke-width:9.32224}
    .fil0 {fill:none}
    .fil4 {fill:#333333}
    .fil14 {fill:#E08B14}
    .fil6 {fill:#F7B254}
    .fil8 {fill:#F0F0ED}
    .fil1 {fill:#CCCCCC}
    .fil2 {fill:black}
    .fil7 {fill:white}
    .fil5 {fill:#333333;fill-rule:nonzero}
    .fil13 {fill:white;fill-opacity:0.501961}
    .fil3 {fill:url(#id0)}
    .fil21 {fill:url(#id1)}
    .fil12 {fill:url(#id2)}
    .fil18 {fill:url(#id3)}
    .fil10 {fill:url(#id4)}
    .fil11 {fill:url(#id5)}
    .fil17 {fill:url(#id6)}
    .fil16 {fill:url(#id7)}
    .fil19 {fill:url(#id8)}
    .fil20 {fill:url(#id9)}
    .fil15 {fill:url(#id10)}
    .fil9 {fill:url(#id11)}
   ]]>
  </style>
  <linearGradient id="id0" gradientUnits="userSpaceOnUse" x1="787.22" y1="1067.21" x2="787.22" y2="982.115">
   <stop offset="0" style="stop-opacity:1; stop-color:#F7B559"/>
   <stop offset="1" style="stop-opacity:1; stop-color:#F29111"/>
  </linearGradient>
  <linearGradient id="id1" gradientUnits="userSpaceOnUse" xlink:href="#id0" x1="872.016" y1="634.256" x2="717.167" y2="512.71">
  </linearGradient>
  <linearGradient id="id2" gradientUnits="userSpaceOnUse" xlink:href="#id0" x1="1419.35" y1="707.361" x2="1550.35" y2="665.204">
  </linearGradient>
  <linearGradient id="id3" gradientUnits="userSpaceOnUse" xlink:href="#id0" x1="165.77" y1="707.361" x2="34.778" y2="665.204">
  </linearGradient>
  <linearGradient id="id4" gradientUnits="userSpaceOnUse" xlink:href="#id0" x1="1385.57" y1="567.583" x2="1547.91" y2="523.433">
  </linearGradient>
  <linearGradient id="id5" gradientUnits="userSpaceOnUse" xlink:href="#id0" x1="1405.47" y1="641.699" x2="1558.69" y2="596.232">
  </linearGradient>
  <linearGradient id="id6" gradientUnits="userSpaceOnUse" xlink:href="#id0" x1="179.657" y1="641.699" x2="26.4311" y2="596.232">
  </linearGradient>
  <linearGradient id="id7" gradientUnits="userSpaceOnUse" xlink:href="#id0" x1="199.555" y1="567.583" x2="37.2097" y2="523.433">
  </linearGradient>
  <radialGradient id="id8" gradientUnits="userSpaceOnUse" gradientTransform="matrix(-0.999999 -0 -0 0.999999 1938 0)" cx="969.108" cy="408.476" r="138.507" fx="969.108" fy="408.476">
   <stop offset="0" style="stop-opacity:1; stop-color:white"/>
   <stop offset="1" style="stop-opacity:1; stop-color:#0374B0"/>
  </radialGradient>
  <radialGradient id="id9" gradientUnits="userSpaceOnUse" gradientTransform="matrix(-0.999999 -0 -0 0.999999 1232 0)" xlink:href="#id8" cx="616.024" cy="408.476" r="138.507" fx="616.024" fy="408.476">
  </radialGradient>
  <radialGradient id="id10" gradientUnits="userSpaceOnUse" gradientTransform="matrix(0.69425 0.0525724 0.0798096 -1.05393 -9 1264)" cx="132.108" cy="618.59" r="189.548" fx="132.108" fy="618.59">
   <stop offset="0" style="stop-opacity:1; stop-color:#E08B14"/>
   <stop offset="0.509804" style="stop-opacity:1; stop-color:#E59322"/>
   <stop offset="0.619608" style="stop-opacity:1; stop-color:#ECA037"/>
   <stop offset="1" style="stop-opacity:1; stop-color:#F7B559"/>
  </radialGradient>
  <radialGradient id="id11" gradientUnits="userSpaceOnUse" gradientTransform="matrix(-0.69425 0.0525724 -0.0798096 -1.05393 2511 1194)" xlink:href="#id10" cx="1453.02" cy="618.59" r="189.548" fx="1453.02" fy="618.59">
  </radialGradient>
 </defs>
 <g id="_1027293095424">
  <rect class="fil0" width="1585" height="1865"/>
  <g>
   <ellipse class="fil1" cx="808" cy="1770" rx="398" ry="38"/>
   <path class="fil2" d="M715 1717c-26,26 -66,30 -98,33 -14,2 -15,20 4,20 26,2 57,3 74,2 30,-2 38,-10 45,-29 0,9 0,16 4,27 8,0 9,0 18,0 7,-10 5,-36 4,-53 -21,0 -30,0 -51,0z"/>
   <path class="fil2" d="M872 1717c-26,26 -51,30 -82,33 -15,2 -16,20 3,20 27,2 43,3 60,2 30,-2 37,-10 45,-29 0,9 0,16 3,27 9,0 10,0 18,0 7,-10 5,-36 5,-53 -22,0 -30,0 -52,0z"/>
   <polygon class="fil3" points="747,982 827,982 827,1051 787,1067 747,1052 "/>
   <g>
    <rect class="fil4" x="706" y="1457" width="67.4474" height="263.403"/>
    <rect class="fil4" x="867" y="1457" width="57.6542" height="263.403"/>
   </g>
   <g>
    <polygon class="fil2" points="774,1475 774,1503 706,1503 706,1475 "/>
    <polygon class="fil2" points="924,1475 924,1503 867,1503 867,1475 "/>
   </g>
   <path class="fil5" d="M224 713c2,112 15,227 98,307 56,71 196,109 374,65l-7 110c-29,3 -56,5 -83,6 -156,3 -277,-33 -355,-108 -91,-94 -150,-270 -153,-405l126 25z"/>
   <circle class="fil6" cx="793" cy="533" r="476"/>
   <path class="fil5" d="M1356 706c-2,113 -14,228 -97,308 -56,71 -197,109 -375,65l8 110c28,3 56,5 83,6 156,3 276,-33 354,-108 92,-94 150,-270 153,-405l-126 24z"/>
   <polygon class="fil7" points="696,1085 792,1264 884,1080 827,1051 787,1067 747,1052 "/>
   <polygon class="fil1 str0" points="783,1082 793,1082 808,1109 792,1132 827,1233 794,1306 758,1240 787,1132 769,1109 "/>
   <polygon class="fil4" points="640,1475 976,1475 950,1194 885,1078 792,1264 696,1085 654,1206 "/>
   <polygon class="fil0 str0" points="696,1085 747,1052 787,1067 759,1128 "/>
   <polygon class="fil0 str0" points="787,1067 827,1051 884,1080 823,1131 "/>
   <g>
    <path class="fil2" d="M1013 685c0,137 -98,248 -220,249 -121,0 -220,-111 -221,-249 68,14 143,22 223,22 78,0 152,-8 218,-22z"/>
    <path class="fil7" d="M795 701c78,0 152,-6 218,-16 0,17 -2,33 -7,48 -57,28 -131,45 -212,45 -82,0 -157,-17 -214,-45 -5,-15 -8,-31 -8,-48 68,11 143,16 223,16z"/>
    <path class="fil8" d="M795 701c78,0 152,-6 218,-16 0,1 0,3 0,4 -61,24 -137,38 -219,38 -83,0 -160,-14 -222,-38 0,-1 0,-3 0,-4 68,11 143,16 223,16z"/>
   </g>
   <g>
    <g>
     <path class="fil9" d="M1462 749c-72,5 -136,-49 -141,-122 -1,-5 -1,-11 0,-16l0 0c-2,-11 10,-64 12,-107 2,-31 -27,-146 31,-150 26,-2 49,36 53,84 1,12 -8,34 -16,58 27,5 8,15 84,8 19,-2 35,-4 48,-3l16 207c-18,22 -54,38 -87,41z"/>
     <path class="fil10" d="M1464 510c52,-7 92,-27 99,27 7,55 -37,45 -89,52 -51,6 -99,-5 -104,-45 -5,-39 43,-28 94,-34z"/>
     <path class="fil11" d="M1481 589c50,-6 89,-30 95,23 7,52 -36,39 -86,46 -50,6 -98,-2 -102,-36 -5,-34 44,-27 93,-33z"/>
     <path class="fil12" d="M1488 660c42,-5 83,-18 79,19 -5,38 -34,32 -72,38 -37,6 -89,-3 -92,-31 -4,-29 44,-20 85,-26z"/>
     <path class="fil13" d="M1404 527c3,11 8,28 5,40 -25,6 -42,-42 -5,-40z"/>
     <path class="fil13" d="M1421 604c3,12 9,29 5,40 -25,7 -42,-41 -5,-40z"/>
     <path class="fil13" d="M1434 671c2,10 7,24 3,33 -25,4 -40,-35 -3,-33z"/>
     <path class="fil14" d="M1540 512c26,23 19,33 9,55 0,-27 6,-28 -9,-55z"/>
     <path class="fil14" d="M1551 586c26,23 19,32 9,55 0,-27 6,-29 -9,-55z"/>
     <path class="fil14" d="M1555 662c14,24 6,30 -8,45 7,-21 12,-21 8,-45z"/>
     <path class="fil14" d="M1488 575c-14,-18 -11,-29 -6,-52 1,26 -2,29 6,52z"/>
     <path class="fil14" d="M1482 514c14,18 11,29 7,53 -1,-27 2,-29 -7,-53z"/>
     <path class="fil14" d="M1496 650c-17,-19 -13,-30 -7,-53 0,26 -3,29 7,53z"/>
     <path class="fil14" d="M1508 711c-13,-15 -10,-24 -6,-43 1,22 -2,24 6,43z"/>
     <path class="fil14" d="M1492 599c14,18 12,29 7,52 -1,-26 2,-29 -7,-52z"/>
     <path class="fil14" d="M1504 675c9,11 7,19 5,34 -1,-17 0,-19 -5,-34z"/>
    </g>
    <g>
     <path class="fil15" d="M123 749c73,5 136,-49 141,-122 1,-5 1,-11 0,-16l0 0c2,-11 -10,-64 -12,-107 -2,-31 27,-146 -31,-150 -25,-2 -49,36 -52,84 -1,12 8,34 16,58 -27,5 -8,15 -85,8 -19,-2 -35,-4 -48,-3l-16 207c18,22 55,38 87,41z"/>
     <path class="fil16" d="M121 510c-52,-7 -92,-27 -99,27 -7,55 37,45 89,52 51,6 99,-5 104,-45 5,-39 -43,-28 -94,-34z"/>
     <path class="fil17" d="M104 589c-50,-6 -88,-30 -95,23 -7,52 36,39 86,46 50,6 98,-2 103,-36 4,-34 -44,-27 -94,-33z"/>
     <path class="fil18" d="M97 660c-42,-5 -83,-18 -79,19 5,38 34,32 72,38 38,6 89,-3 92,-31 4,-29 -44,-20 -85,-26z"/>
     <path class="fil13" d="M181 527c-3,11 -8,28 -5,40 25,6 42,-42 5,-40z"/>
     <path class="fil13" d="M164 604c-3,12 -8,29 -5,40 25,7 42,-41 5,-40z"/>
     <path class="fil13" d="M151 671c-2,10 -7,24 -3,33 26,4 40,-35 3,-33z"/>
     <path class="fil14" d="M45 512c-26,23 -19,33 -8,55 -1,-27 -7,-28 8,-55z"/>
     <path class="fil14" d="M34 586c-26,23 -19,32 -8,55 -1,-27 -7,-29 8,-55z"/>
     <path class="fil14" d="M31 662c-15,24 -7,30 7,45 -7,-21 -12,-21 -7,-45z"/>
     <path class="fil14" d="M97 575c14,-18 11,-29 6,-52 0,26 2,29 -6,52z"/>
     <path class="fil14" d="M103 514c-14,18 -11,29 -7,53 1,-27 -2,-29 7,-53z"/>
     <path class="fil14" d="M90 650c16,-19 12,-30 7,-53 -1,26 2,29 -7,53z"/>
     <path class="fil14" d="M77 711c13,-15 10,-24 6,-43 -1,22 2,24 -6,43z"/>
     <path class="fil14" d="M93 599c-14,18 -11,29 -7,52 1,-26 -2,-29 7,-52z"/>
     <path class="fil14" d="M81 675c-9,11 -7,19 -4,34 0,-17 -1,-19 4,-34z"/>
    </g>
   </g>
   <path class="fil14" d="M90 696c16,-18 12,-29 7,-53 -1,27 2,29 -7,53z"/>
   <g>
    <g>
     <ellipse class="fil14" cx="969" cy="399" rx="139" ry="155"/>
     <circle class="fil7" cx="969" cy="408" r="137"/>
     <circle class="fil19" cx="969" cy="408" r="88"/>
     <circle class="fil2" cx="969" cy="408" r="61"/>
     <circle class="fil7" cx="915" cy="454" r="15"/>
     <circle class="fil7" cx="1006" cy="372" r="35"/>
    </g>
    <g>
     <ellipse class="fil14" cx="616" cy="399" rx="139" ry="155"/>
     <circle class="fil7" cx="616" cy="408" r="137"/>
     <circle class="fil20" cx="616" cy="408" r="88"/>
     <circle class="fil2" cx="616" cy="408" r="61"/>
     <circle class="fil7" cx="562" cy="454" r="15"/>
     <circle class="fil7" cx="653" cy="372" r="35"/>
    </g>
    <rect class="fil5" transform="matrix(-1.17158 -0.313927 -0.263422 0.983085 1069.77 157.201)" width="152.819" height="55.8938"/>
    <rect class="fil5" transform="matrix(1.17158 -0.313927 0.263422 0.983085 513.651 121.086)" width="152.819" height="55.8938"/>
   </g>
   <g>
    <path class="fil21" d="M734 650c-42,-33 -49,-94 -16,-137 33,-42 94,-49 137,-16 42,33 49,94 16,137 -33,42 -94,49 -137,16z"/>
    <path class="fil14" d="M798 676c-156,5 -128,-236 21,-202 51,12 75,54 73,105 -29,-119 -142,-113 -177,-36 -30,67 17,117 83,133z"/>
   </g>
  </g>
 </g>
</svg>
