<?xml version="1.0" encoding="UTF-8"?>
<!DOCTYPE svg PUBLIC "-//W3C//DTD SVG 1.1//EN" "http://www.w3.org/Graphics/SVG/1.1/DTD/svg11.dtd">
<!-- Creator: CorelDRAW X7 -->
<svg xmlns="http://www.w3.org/2000/svg" xml:space="preserve" width="51px" height="48px" version="1.1" style="shape-rendering:geometricPrecision; text-rendering:geometricPrecision; image-rendering:optimizeQuality; fill-rule:evenodd; clip-rule:evenodd"
viewBox="0 0 4027 3743"
 xmlns:xlink="http://www.w3.org/1999/xlink">
 <defs>
  <style type="text/css">
   <![CDATA[
    .fil0 {fill:#4D4D4D}
   ]]>
  </style>
 </defs>
 <g id="Слой_x0020_1">
  <metadata id="CorelCorpID_0Corel-Layer"/>
  <path class="fil0" d="M3548 1278l1 0 0 1c24,24 43,51 59,81 110,34 207,112 279,221 87,130 140,305 140,497 0,191 -53,367 -140,496l0 1c-72,108 -168,187 -279,220 -15,31 -35,59 -59,83l0 -1c-35,35 -78,62 -126,77 -23,158 -87,289 -185,387l0 1c-126,126 -306,194 -528,194l-172 0c-16,44 -41,84 -73,116l-1 0c-56,56 -133,91 -218,91l-387 0c-86,0 -163,-35 -219,-91 -56,-56 -91,-133 -91,-219 0,-85 35,-162 91,-219l0 0c56,-56 133,-91 219,-91l387 0c85,0 162,35 218,91l0 0 1 1c32,32 57,71 73,115l172 0c7,0 14,0 21,0 156,-4 278,-51 361,-134l1 0c36,-36 65,-80 87,-130 15,-36 27,-76 35,-119 -12,-5 -24,-11 -35,-17 -26,-14 -49,-32 -69,-52 -56,-56 -91,-134 -91,-219l0 -1162c0,-85 35,-162 91,-219l0 0c28,-28 61,-50 98,-66 -44,-252 -165,-477 -338,-650 -219,-220 -523,-355 -858,-355 -335,0 -638,135 -857,355 -174,173 -295,398 -338,650 36,16 70,38 97,66l1 0 0 1c56,56 91,133 91,218l0 1162c0,85 -35,163 -91,219l0 -1c-57,57 -134,92 -219,92 -86,0 -163,-35 -219,-91 -24,-24 -44,-52 -59,-83 -111,-33 -207,-112 -280,-220 -86,-130 -139,-305 -139,-497 0,-191 53,-367 139,-496l1 -1c73,-109 169,-187 279,-220 15,-31 35,-59 59,-83l0 0c36,-36 82,-64 133,-78 47,-304 191,-576 399,-784 256,-257 611,-416 1003,-416 392,0 747,159 1004,416 208,208 352,480 399,784 51,15 96,42 132,78z"/>
 </g>
</svg>
